<svg width="24" height="24" fill="#6d6d6d" xmlns="http://www.w3.org/2000/svg"><path fill-rule="evenodd" d="M16 1.75V3h5.25a.75.75 0 0 1 0 1.5H2.75a.75.75 0 0 1 0-1.5H8V1.75C8 .78 8.78 0 9.75 0h4.5C15.22 0 16 .78 16 1.75zm-6.5 0a.25.25 0 0 1 .25-.25h4.5a.25.25 0 0 1 .25.25V3h-5V1.75z"/><path d="M5 6.18a.75.75 0 1 0-1.5.14l1.42 14.6a1.75 1.75 0 0 0 1.74 1.58h10.68a1.75 1.75 0 0 0 1.74-1.58l1.42-14.6a.75.75 0 0 0-1.5-.14l-1.4 14.6a.25.25 0 0 1-.26.22H6.66a.25.25 0 0 1-.25-.23L5 6.17z"/><path d="M9.2 7.5a.75.75 0 0 1 .8.7l.5 8.5a.75.75 0 1 1-1.5.1l-.5-8.5a.75.75 0 0 1 .7-.8zm6.3.8a.75.75 0 1 0-1.5-.1l-.5 8.5a.75.75 0 0 0 1.5.1l.5-8.5z"/></svg>